<svg xmlns="http://www.w3.org/2000/svg" width="302.64" height="306.46" viewBox="0 0 302.64 306.46">
  <g id="_01" data-name="01" transform="translate(-1244 -4137.18)">
    <path id="_01모양" data-name="01모양" d="M7.011,306.46l113.874-157.8H233.64L118,306.46Zm113.35-157.8L0,0H117.786L233.64,148.659Z" transform="translate(1313 4137.18)" fill="#fe5300"/>
    <path id="패스_68434" data-name="패스 68434" d="M7-70.7q0-9.94,3.08-16.8a29.727,29.727,0,0,1,8.47-11.2,33.206,33.206,0,0,1,12.74-6.23,64.266,64.266,0,0,1,16.03-1.89,64.265,64.265,0,0,1,16.03,1.89A33.206,33.206,0,0,1,76.09-98.7a29.727,29.727,0,0,1,8.47,11.2q3.08,6.86,3.08,16.8v52.22q0,9.94-3.08,16.8a29.728,29.728,0,0,1-8.47,11.2,33.206,33.206,0,0,1-12.74,6.23,64.265,64.265,0,0,1-16.03,1.89,64.265,64.265,0,0,1-16.03-1.89A33.206,33.206,0,0,1,18.55,9.52a29.727,29.727,0,0,1-8.47-11.2Q7-8.54,7-18.48ZM37.8-23.66q0,7.98,2.8,11.69a8.229,8.229,0,0,0,6.72,3.71,8.229,8.229,0,0,0,6.72-3.71q2.8-3.71,2.8-11.69V-65.52q0-7.98-2.8-11.69a8.229,8.229,0,0,0-6.72-3.71,8.229,8.229,0,0,0-6.72,3.71q-2.8,3.71-2.8,11.69Zm119.84-81.06V15.54h-30.8V-69.72L107.94-59.5,93.24-84.98l35-19.74Z" transform="translate(1237 4335)" fill="rgba(245,212,154,0.89)"/>
  </g>
</svg>
