<svg xmlns="http://www.w3.org/2000/svg" width="284.04" height="301.46" viewBox="0 0 284.04 301.46">
  <g id="_02" data-name="02" transform="translate(-509 -4558.18)">
    <g id="_02모양" data-name="02모양" transform="translate(-97 -56.82)">
      <rect id="사각형_14" data-name="사각형 14" width="149.04" height="125" transform="translate(741 4686)" fill="#fe5300"/>
      <rect id="사각형_15" data-name="사각형 15" width="149.04" height="125" transform="translate(741 4791.46)" fill="#fe5300"/>
      <rect id="사각형_53" data-name="사각형 53" width="149.04" height="125" transform="translate(741 4686)" fill="#fe5300"/>
      <rect id="사각형_54" data-name="사각형 54" width="149.04" height="125" transform="translate(741 4791.46)" fill="#fe5300"/>
    </g>
    <path id="패스_68435" data-name="패스 68435" d="M7-70.7q0-9.94,3.08-16.8a29.727,29.727,0,0,1,8.47-11.2,33.206,33.206,0,0,1,12.74-6.23,64.266,64.266,0,0,1,16.03-1.89,64.265,64.265,0,0,1,16.03,1.89A33.206,33.206,0,0,1,76.09-98.7a29.727,29.727,0,0,1,8.47,11.2q3.08,6.86,3.08,16.8v52.22q0,9.94-3.08,16.8a29.728,29.728,0,0,1-8.47,11.2,33.206,33.206,0,0,1-12.74,6.23,64.265,64.265,0,0,1-16.03,1.89,64.265,64.265,0,0,1-16.03-1.89A33.206,33.206,0,0,1,18.55,9.52a29.727,29.727,0,0,1-8.47-11.2Q7-8.54,7-18.48ZM37.8-23.66q0,7.98,2.8,11.69a8.229,8.229,0,0,0,6.72,3.71,8.229,8.229,0,0,0,6.72-3.71q2.8-3.71,2.8-11.69V-65.52q0-7.98-2.8-11.69a8.229,8.229,0,0,0-6.72-3.71,8.229,8.229,0,0,0-6.72,3.71q-2.8,3.71-2.8,11.69ZM139.3-80.92a9.21,9.21,0,0,0-7.77,3.819,23.284,23.284,0,0,0-3.99,9.9l-27.3-4.2a60.534,60.534,0,0,1,3.92-15.96,29.814,29.814,0,0,1,7.7-11.06,30.383,30.383,0,0,1,12.04-6.37,62.4,62.4,0,0,1,16.94-2.03q19.18,0,29.19,8.19T180.04-74.9a50.367,50.367,0,0,1-1.47,12.39,51,51,0,0,1-4.2,11.06,67.9,67.9,0,0,1-6.51,10.15q-3.78,4.9-8.4,9.8L139.72-10.36h39.62v25.9H102.48V-8.995l28.98-32.248q4.34-4.907,7.63-8.832a72.391,72.391,0,0,0,5.53-7.431,32.306,32.306,0,0,0,3.36-6.73,19.946,19.946,0,0,0,1.12-6.589q0-5.469-2.38-7.782T139.3-80.92Z" transform="translate(502 4665)" fill="rgba(245,212,154,0.89)"/>
  </g>
</svg>
