<svg xmlns="http://www.w3.org/2000/svg" width="364.26" height="279.46" viewBox="0 0 364.26 279.46">
  <g id="_03" data-name="03" transform="translate(-1139 -5098.18)">
    <path id="_03모양" data-name="03모양" d="M0,279.46,93.8,121.718h97.923L253.762,0h110.5L243.483,207.958H150.329l-38.546,71.5Z" transform="translate(1139 5098.18)" fill="#fe5300"/>
    <path id="패스_68436" data-name="패스 68436" d="M7-70.7q0-9.94,3.08-16.8a29.727,29.727,0,0,1,8.47-11.2,33.206,33.206,0,0,1,12.74-6.23,64.266,64.266,0,0,1,16.03-1.89,64.265,64.265,0,0,1,16.03,1.89A33.206,33.206,0,0,1,76.09-98.7a29.727,29.727,0,0,1,8.47,11.2q3.08,6.86,3.08,16.8v52.22q0,9.94-3.08,16.8a29.728,29.728,0,0,1-8.47,11.2,33.206,33.206,0,0,1-12.74,6.23,64.265,64.265,0,0,1-16.03,1.89,64.265,64.265,0,0,1-16.03-1.89A33.206,33.206,0,0,1,18.55,9.52a29.727,29.727,0,0,1-8.47-11.2Q7-8.54,7-18.48ZM37.8-23.66q0,7.98,2.8,11.69a8.229,8.229,0,0,0,6.72,3.71,8.229,8.229,0,0,0,6.72-3.71q2.8-3.71,2.8-11.69V-65.52q0-7.98-2.8-11.69a8.229,8.229,0,0,0-6.72-3.71,8.229,8.229,0,0,0-6.72,3.71q-2.8,3.71-2.8,11.69Zm104.44-83.16q19.18,0,29.33,7.28t10.15,22.12v6.02a33.973,33.973,0,0,1-2.73,14.14,22.937,22.937,0,0,1-9.45,10.08,28.614,28.614,0,0,1,10.22,9.59q3.5,5.67,3.5,15.05v7.98a35.73,35.73,0,0,1-2.38,13.37,24.991,24.991,0,0,1-7.49,10.15,35.451,35.451,0,0,1-13.02,6.44,69.657,69.657,0,0,1-18.83,2.24,65.982,65.982,0,0,1-17.43-2.03,30.327,30.327,0,0,1-12.25-6.37,30.51,30.51,0,0,1-7.77-11.06,55.6,55.6,0,0,1-3.85-15.96l28-4.2a25.7,25.7,0,0,0,4.27,9.94q2.87,3.78,9.03,3.78a11.063,11.063,0,0,0,7.84-2.73,9.9,9.9,0,0,0,2.94-7.63V-24.5q0-8.68-10.22-8.68H124.88v-25.9H142.1q5.04,0,6.93-2.31t1.89-7.21v-3.5q0-4.62-2.38-6.72a9.174,9.174,0,0,0-6.3-2.1q-5.88,0-8.61,3.01A18.349,18.349,0,0,0,129.64-70l-28-4.2a49.02,49.02,0,0,1,3.78-14.7,27.9,27.9,0,0,1,7.63-10.15,30.927,30.927,0,0,1,12.04-5.88A68.267,68.267,0,0,1,142.24-106.82Z" transform="translate(1311 5227)" fill="rgba(245,212,154,0.89)"/>
  </g>
</svg>
