<svg xmlns="http://www.w3.org/2000/svg" width="1097" height="35" viewBox="0 0 1097 35">
  <g id="그룹_1300" data-name="그룹 1300" transform="translate(-405 -5487)">
    <g id="그룹_1301" data-name="그룹 1301">
      <g id="그룹_80" data-name="그룹 80" transform="translate(0 22)">
        <g id="그룹_75" data-name="그룹 75" transform="translate(0 -18)">
          <g id="그룹_74" data-name="그룹 74">
            <rect id="사각형_149" data-name="사각형 149" width="921" height="2" transform="translate(500 5500)" fill="#fff"/>
            <path id="패스_1619" data-name="패스 1619" d="M5.531-7.406a.7.7,0,0,0,.223.5,1.552,1.552,0,0,1,.34.5,1.131,1.131,0,0,1,.082.656,1.261,1.261,0,0,1-.27.586,1.862,1.862,0,0,1-.551.445,2.382,2.382,0,0,1-.785.258.88.88,0,0,0-.434-.094.774.774,0,0,1-.41-.094,7.135,7.135,0,0,1-1.02.551,1.852,1.852,0,0,1-1.16.152.265.265,0,0,1-.27.188.235.235,0,0,0-.246.211,9.81,9.81,0,0,0-1.875.516q-.914.352-1.781.762T-4.3-1.43q-.809.422-1.559.727a.952.952,0,0,0-.609.012,1.353,1.353,0,0,1-.586.082q.07-.07.023-.094a.455.455,0,0,0-.141-.035l-.2-.023a.285.285,0,0,1-.176-.082Q-7.8-1.008-7.934-1.1a2.433,2.433,0,0,0-.211-.141,1.713,1.713,0,0,1-.176-.117q-.094-.07-.258-.211a1.381,1.381,0,0,0,.105-.387,1.1,1.1,0,0,0-.012-.281q-.023-.129-.059-.27a1.135,1.135,0,0,1-.012-.375,23.733,23.733,0,0,1,2.273-1.3q.984-.48,1.922-.832t1.934-.668q1-.316,2.309-.832a6.948,6.948,0,0,0-1.395-.562q-.855-.258-1.711-.574a7.466,7.466,0,0,1-1.559-.785,2.244,2.244,0,0,1-.937-1.219.772.772,0,0,1-.574-.375,1.179,1.179,0,0,1-.2-.82,2.939,2.939,0,0,0,.434-.316,1.35,1.35,0,0,1,.5-.27,1.721,1.721,0,0,1,.668.047A8.944,8.944,0,0,1-4-11.133q.48.164,1.008.352t1,.3q.469.117,1.02.211a5,5,0,0,1,1.02.281,1.5,1.5,0,0,1,.363.223.832.832,0,0,0,.363.176,4.157,4.157,0,0,1,.9.27q.48.2.973.434t.973.48a9.728,9.728,0,0,0,.9.41q-.023.141.3.352A1.449,1.449,0,0,0,5.531-7.406Z" transform="translate(1420 5507)" fill="#fff"/>
          </g>
          <circle id="타원_5" data-name="타원 5" cx="6" cy="6" r="6" transform="translate(669 5495)" fill="#fff"/>
          <circle id="타원_2" data-name="타원 2" cx="6" cy="6" r="6" transform="translate(859 5495)" fill="#fff"/>
          <circle id="타원_3" data-name="타원 3" cx="6" cy="6" r="6" transform="translate(1049 5495)" fill="#fff"/>
          <circle id="타원_4" data-name="타원 4" cx="6" cy="6" r="6" transform="translate(1239 5495)" fill="#fff"/>
        </g>
        <text id="_2022" data-name="2022" transform="translate(405 5492)" fill="#fff" font-size="24" font-family="PermanentMarker-Regular, Permanent Marker"><tspan x="0" y="0">2022</tspan></text>
        <text id="_ing" data-name="~ing" transform="translate(1450 5492)" fill="#fff" font-size="24" font-family="PermanentMarker-Regular, Permanent Marker"><tspan x="0" y="0">~ing</tspan></text>
      </g>
      <g id="그룹_1302" data-name="그룹 1302" transform="translate(-377)">
        <g id="icon-map" transform="translate(1031 5491)">
          <g id="레이어_2" data-name="레이어 2" transform="translate(0 0)">
            <g id="icon">
              <g id="그룹_73" data-name="그룹 73">
                <g id="그룹_65" data-name="그룹 65" transform="translate(1.045 1.441)">
                  <path id="패스_1602" data-name="패스 1602" d="M2.2,15.006l9.289,3.2,16.086,5.549,5.671,1.951H47.961a9.368,9.368,0,0,0-8.777-6.081,5.67,5.67,0,0,1-.984-.081,6.128,6.128,0,0,1-3.87-2.309L27.135,7.9c-1.321.8-9.134,2.7-13.268,1a18.5,18.5,0,0,1-3.65-1.927,14.746,14.746,0,0,1-2.207-2A2.009,2.009,0,0,0,5.871,4.36L2.2,15.006Z" transform="translate(-1.9 -3.987)" fill="#ff7d7d"/>
                  <path id="패스_1603" data-name="패스 1603" d="M32.8,25.571H47.507a.306.306,0,0,0,.252-.13.312.312,0,0,0,.037-.28,9.716,9.716,0,0,0-9.061-6.281A5.328,5.328,0,0,1,37.8,18.8a5.827,5.827,0,0,1-3.679-2.191l-7.2-9.342a.3.3,0,0,0-.4-.073c-1.2.728-8.927,2.646-13,.98A18.289,18.289,0,0,1,9.942,6.282,11.912,11.912,0,0,1,8.1,4.652c-.114-.118-.22-.232-.321-.333a2.307,2.307,0,0,0-2.411-.7.3.3,0,0,0-.232.2L1.462,14.465a.306.306,0,0,0,.016.232.3.3,0,0,0,.175.154L32.7,25.555A.273.273,0,0,0,32.8,25.571Zm14.26-.61H32.848L2.141,14.376,5.653,4.189a1.649,1.649,0,0,1,1.7.561c.1.1.2.2.309.321A12.52,12.52,0,0,0,9.588,6.778,18.862,18.862,0,0,0,13.3,8.742c4.106,1.683,11.459-.045,13.3-.894l7.041,9.138A6.4,6.4,0,0,0,37.7,19.408a6.138,6.138,0,0,0,1.033.085,9.1,9.1,0,0,1,8.321,5.472Z" transform="translate(-1.446 -3.544)" fill="#232323"/>
                </g>
                <g id="그룹_66" data-name="그룹 66" transform="translate(35.513 16.692)">
                  <path id="패스_1604" data-name="패스 1604" d="M1.3,49.227H12.951a9.553,9.553,0,0,0-.366-1.244A9.368,9.368,0,0,0,3.808,41.9a5.671,5.671,0,0,1-.984-.081L1.556,47.983,1.3,49.227Z" transform="translate(-0.992 -41.512)" fill="#f5faff"/>
                  <path id="패스_1605" data-name="패스 1605" d="M.86,49.081H12.511a.3.3,0,0,0,.236-.114.308.308,0,0,0,.061-.256,9.876,9.876,0,0,0-.378-1.285,9.718,9.718,0,0,0-9.061-6.285,5.328,5.328,0,0,1-.931-.077.308.308,0,0,0-.35.24L.56,48.711a.308.308,0,0,0,.061.256.314.314,0,0,0,.236.114Zm11.264-.61H1.234l1.394-6.76a6.319,6.319,0,0,0,.744.041,9.1,9.1,0,0,1,8.488,5.886C11.962,47.918,12.052,48.2,12.125,48.471Z" transform="translate(-0.553 -41.061)" fill="#232323"/>
                </g>
                <g id="그룹_67" data-name="그룹 67" transform="translate(0 12.155)">
                  <path id="패스_1606" data-name="패스 1606" d="M1.387,34.731,22.2,42.1l8.37,2.964a8.807,8.807,0,0,0,2.955.508H47.205a.93.93,0,0,0,.939-.939A9.324,9.324,0,0,0,47.92,42.6a9.552,9.552,0,0,0-.366-1.244H32.843l-7.005-2.416L1.8,30.65l-1,2.886a.943.943,0,0,0,.581,1.2Z" transform="translate(-0.449 -30.345)" fill="#f5faff"/>
                  <path id="패스_1607" data-name="패스 1607" d="M33.069,45.433H46.756a1.233,1.233,0,0,0,.878-.362A1.253,1.253,0,0,0,48,44.185a9.487,9.487,0,0,0-.232-2.1A10.065,10.065,0,0,0,47.39,40.8a.308.308,0,0,0-.285-.2H32.447l-31-10.683a.3.3,0,0,0-.386.187l-1,2.886a1.242,1.242,0,0,0,.768,1.581L30.016,44.9a9.1,9.1,0,0,0,3.053.524Zm13.821-4.22a9.413,9.413,0,0,1,.285,1,9.034,9.034,0,0,1,.215,1.967.632.632,0,0,1-.634.638H33.069a8.488,8.488,0,0,1-2.85-.492L1.04,34h0a.64.64,0,0,1-.362-.321.625.625,0,0,1-.028-.484l.9-2.6L32.3,41.2a.273.273,0,0,0,.1.016Z" transform="translate(0 -29.9)" fill="#232323"/>
                </g>
                <g id="그룹_68" data-name="그룹 68" transform="translate(18.616)">
                  <path id="패스_1608" data-name="패스 1608" d="M50.271,15.134h0a10.865,10.865,0,0,1-6.63-3.813L35.71,1.7l4.1-.882A3.345,3.345,0,0,1,43.458,2.5l6.817,12.63Z" transform="translate(-35.408 -0.442)" fill="#ff7d7d"/>
                  <path id="패스_1609" data-name="패스 1609" d="M49.831,15a.312.312,0,0,0,.248-.126.3.3,0,0,0,.02-.321L43.282,1.915A3.659,3.659,0,0,0,39.306.081l-4.1.882a.308.308,0,0,0-.224.2.294.294,0,0,0,.053.293l7.927,9.618a11.168,11.168,0,0,0,6.817,3.919h.049ZM40.067.61A3.063,3.063,0,0,1,42.75,2.2l6.508,12.065a10.55,10.55,0,0,1-5.821-3.585l-7.61-9.232,3.61-.776a3.051,3.051,0,0,1,.63-.069Z" transform="translate(-34.967 0)" fill="#232323"/>
                </g>
                <g id="그룹_69" data-name="그룹 69" transform="translate(25.258 10.43)">
                  <path id="패스_1610" data-name="패스 1610" d="M36.8,29.372a.809.809,0,0,0,.171-.016L43.1,28.083a.843.843,0,0,0-.341-1.65l-6.134,1.272a.842.842,0,0,0,.171,1.667Z" transform="translate(-35.652 -26.107)" fill="#f5faff"/>
                  <path id="패스_1611" data-name="패스 1611" d="M36.345,29.227a1.161,1.161,0,0,0,.236-.024l6.134-1.272a1.148,1.148,0,1,0-.467-2.248l-6.134,1.272a1.146,1.146,0,0,0-.728.5,1.117,1.117,0,0,0-.163.862A1.152,1.152,0,0,0,36.345,29.227Zm6.138-2.959a.541.541,0,0,1,.524.431.55.55,0,0,1-.077.407.52.52,0,0,1-.341.232L36.455,28.61a.54.54,0,0,1-.561-.825.52.52,0,0,1,.341-.232L42.37,26.28a.5.5,0,0,1,.11-.012Z" transform="translate(-35.197 -25.657)" fill="#232323"/>
                </g>
                <g id="그룹_70" data-name="그룹 70" transform="translate(23.392 7.092)">
                  <path id="패스_1612" data-name="패스 1612" d="M41.37,21.164a.81.81,0,0,0,.171-.016l6.138-1.272a.843.843,0,1,0-.341-1.65L41.2,19.5a.842.842,0,0,0,.171,1.667Z" transform="translate(-40.218 -17.898)" fill="#f5faff"/>
                  <path id="패스_1613" data-name="패스 1613" d="M40.929,21.017a1.161,1.161,0,0,0,.236-.024L47.3,19.721a1.148,1.148,0,1,0-.467-2.248l-6.138,1.272a1.146,1.146,0,0,0-.728.5,1.117,1.117,0,0,0-.163.862,1.152,1.152,0,0,0,1.122.915Zm6.138-2.959a.541.541,0,0,1,.528.431.55.55,0,0,1-.077.407.52.52,0,0,1-.341.232L41.039,20.4a.54.54,0,0,1-.561-.825.52.52,0,0,1,.341-.232l6.138-1.272a.5.5,0,0,1,.11-.012Z" transform="translate(-39.777 -17.447)" fill="#232323"/>
                </g>
                <g id="그룹_71" data-name="그룹 71" transform="translate(21.515 3.755)">
                  <path id="패스_1614" data-name="패스 1614" d="M46.01,12.952a.81.81,0,0,0,.171-.016l6.138-1.272a.843.843,0,1,0-.341-1.65l-6.138,1.272a.842.842,0,0,0,.171,1.667Z" transform="translate(-44.866 -9.687)" fill="#f5faff"/>
                  <path id="패스_1615" data-name="패스 1615" d="M45.551,12.807a1.161,1.161,0,0,0,.236-.024l6.138-1.272a1.147,1.147,0,0,0,.89-1.358,1.147,1.147,0,0,0-1.358-.89l-6.134,1.272a1.147,1.147,0,0,0-.89,1.358,1.152,1.152,0,0,0,1.122.915Zm6.138-2.963a.541.541,0,0,1,.524.431.55.55,0,0,1-.077.407.52.52,0,0,1-.341.232l-6.138,1.272a.54.54,0,0,1-.561-.825.52.52,0,0,1,.341-.232l6.138-1.272a.5.5,0,0,1,.11-.012Z" transform="translate(-44.407 -9.237)" fill="#232323"/>
                </g>
                <g id="그룹_72" data-name="그룹 72" transform="translate(6.845 2.129)">
                  <path id="패스_1616" data-name="패스 1616" d="M53.712,12.891a14.4,14.4,0,0,1,2.11,6.321l16.086,5.549c-.752-2.382-3.13-6.5-10.659-9.8-4.187-1.833-6.037-4.435-6.7-6.98a14.746,14.746,0,0,1-2.207-2,13.329,13.329,0,0,0,1.37,6.915Z" transform="translate(-52.025 -5.678)" fill="#896faa"/>
                  <path id="패스_1617" data-name="패스 1617" d="M71.472,24.624a.3.3,0,0,0,.211-.085.3.3,0,0,0,.077-.309c-.715-2.272-3.077-6.594-10.829-9.992-3.569-1.561-5.764-3.846-6.524-6.781a.3.3,0,0,0-.118-.171,11.912,11.912,0,0,1-1.846-1.63c-.114-.118-.22-.232-.321-.333a.3.3,0,0,0-.516.207A13.438,13.438,0,0,0,53.016,12.6h0a14,14,0,0,1,2.069,6.183.3.3,0,0,0,.2.276l16.086,5.549a.273.273,0,0,0,.1.016ZM53.846,7.717c.837,3.073,3.138,5.455,6.842,7.077,6.9,3.024,9.39,6.752,10.285,9.029L55.679,18.551A15.011,15.011,0,0,0,53.541,12.3h0A12.277,12.277,0,0,1,52.2,6.278a11.943,11.943,0,0,0,1.646,1.439Zm-.569,4.736Z" transform="translate(-51.593 -5.236)" fill="#232323"/>
                </g>
                <path id="패스_1618" data-name="패스 1618" d="M73.6,5.98c.285.28.6.634,1.037,1.045a13.25,13.25,0,0,0,1.85,5.9c1.878,2.894,6.337,4.581,8.041,8.862l-7.447-2.569a14.287,14.287,0,0,0-2.11-6.321A13.321,13.321,0,0,1,73.6,5.98Z" transform="translate(-66.445 -3.549)" fill="#50586d"/>
              </g>
            </g>
          </g>
        </g>
      </g>
    </g>
  </g>
</svg>
