<svg xmlns="http://www.w3.org/2000/svg" width="1085.187" height="264.613" viewBox="0 0 1085.187 264.613">
  <g id="점" transform="translate(-438 -7010)">
    <circle id="타원_29" data-name="타원 29" cx="3" cy="3" r="3" transform="translate(1415.881 7101.695) rotate(-3)" fill="#4e4b56"/>
    <circle id="타원_28" data-name="타원 28" cx="3" cy="3" r="3" transform="translate(1516.881 7066.695) rotate(-3)" fill="#4e4b56"/>
    <circle id="타원_27" data-name="타원 27" cx="3" cy="3" r="3" transform="translate(1373.788 7104.848) rotate(-3)" fill="#4e4b56"/>
    <circle id="타원_26" data-name="타원 26" cx="3" cy="3" r="3" transform="translate(1334.847 7114.703) rotate(-3)" fill="#4e4b56"/>
    <circle id="타원_25" data-name="타원 25" cx="3" cy="3" r="3" transform="translate(1295.258 7121.008) rotate(-3)" fill="#4e4b56"/>
    <circle id="타원_24" data-name="타원 24" cx="3" cy="3" r="3" transform="translate(1254.227 7135.661) rotate(-3)" fill="#4e4b56"/>
    <circle id="타원_23" data-name="타원 23" cx="3" cy="3" r="3" transform="translate(1171.467 7173.314) rotate(-3)" fill="#4e4b56"/>
    <circle id="타원_22" data-name="타원 22" cx="3" cy="3" r="3" transform="translate(1137.482 7193.597) rotate(-3)" fill="#4e4b56"/>
    <circle id="타원_21" data-name="타원 21" cx="3" cy="3" r="3" transform="translate(1104.601 7215.848) rotate(-3)" fill="#4e4b56"/>
    <circle id="타원_20" data-name="타원 20" cx="3" cy="3" r="3" transform="translate(1071.564 7235.104) rotate(-3)" fill="#4e4b56"/>
    <circle id="타원_19" data-name="타원 19" cx="3" cy="3" r="3" transform="translate(1038.5 7253.859) rotate(-3)" fill="#4e4b56"/>
    <circle id="타원_18" data-name="타원 18" cx="3" cy="3" r="3" transform="translate(1005.227 7268.621) rotate(-3)" fill="#4e4b56"/>
    <circle id="타원_15" data-name="타원 15" cx="3" cy="3" r="3" transform="translate(732 7183)" fill="#4e4b56"/>
    <circle id="타원_14" data-name="타원 14" cx="3" cy="3" r="3" transform="translate(766 7196)" fill="#4e4b56"/>
    <circle id="타원_13" data-name="타원 13" cx="3" cy="3" r="3" transform="translate(800 7210)" fill="#4e4b56"/>
    <circle id="타원_12" data-name="타원 12" cx="3" cy="3" r="3" transform="translate(833 7224)" fill="#4e4b56"/>
    <circle id="타원_16" data-name="타원 16" cx="3" cy="3" r="3" transform="translate(867 7248)" fill="#4e4b56"/>
    <circle id="타원_17" data-name="타원 17" cx="3" cy="3" r="3" transform="translate(901 7265)" fill="#4e4b56"/>
    <circle id="타원_5" data-name="타원 5" cx="3" cy="3" r="3" transform="translate(527 7066)" fill="#4e4b56"/>
    <circle id="타원_6" data-name="타원 6" cx="3" cy="3" r="3" transform="translate(558 7083)" fill="#4e4b56"/>
    <circle id="타원_7" data-name="타원 7" cx="3" cy="3" r="3" transform="translate(588 7097)" fill="#4e4b56"/>
    <circle id="타원_8" data-name="타원 8" cx="3" cy="3" r="3" transform="translate(619 7112)" fill="#4e4b56"/>
    <circle id="타원_9" data-name="타원 9" cx="3" cy="3" r="3" transform="translate(649 7127)" fill="#4e4b56"/>
    <circle id="타원_10" data-name="타원 10" cx="3" cy="3" r="3" transform="translate(438 7010)" fill="#4e4b56"/>
  </g>
</svg>
