<svg xmlns="http://www.w3.org/2000/svg" width="21.354" height="19.356" viewBox="0 0 21.354 19.356">
  <defs>
    <style>
      .cls-1 {
        opacity: 0.73;
      }

      .cls-2 {
        fill: #f9f7f7;
      }
    </style>
  </defs>
  <g id="icon_Download" class="cls-1" transform="translate(-10 -16.2)">
    <path id="패스_39410" data-name="패스 39410" class="cls-2" d="M29.522,82.117H11.887A1.85,1.85,0,0,1,10,80.3V71.371a1.171,1.171,0,0,1,2.342,0v8.4h16.67v-8.4a1.171,1.171,0,0,1,2.342,0V80.3A1.82,1.82,0,0,1,29.522,82.117Z" transform="translate(0 -46.561)"/>
    <path id="패스_39411" data-name="패스 39411" class="cls-2" d="M55.432,91.1a1.15,1.15,0,0,1-.785-.3l-3.981-3.582a1.17,1.17,0,0,1,1.571-1.736l3.2,2.879,3.2-2.879A1.17,1.17,0,0,1,60.2,87.218L56.217,90.8A1.126,1.126,0,0,1,55.432,91.1Z" transform="translate(-34.727 -59.473)"/>
    <path id="패스_39412" data-name="패스 39412" class="cls-2" d="M80.071,31.492A1.17,1.17,0,0,1,78.9,30.321V17.371a1.171,1.171,0,1,1,2.342,0v12.95A1.17,1.17,0,0,1,80.071,31.492Z" transform="translate(-59.408)"/>
  </g>
</svg>
