<?xml version="1.0" encoding="utf-8"?>
<!-- Generator: Adobe Illustrator 26.3.1, SVG Export Plug-In . SVG Version: 6.00 Build 0)  -->
<svg version="1.1" id="레이어_1" xmlns="http://www.w3.org/2000/svg" xmlns:xlink="http://www.w3.org/1999/xlink" x="0px"
	 y="0px" viewBox="0 0 657 244" style="enable-background:new 0 0 657 244;" xml:space="preserve">
<style type="text/css">
	.st0{fill:#FF5400;}
	.st1{fill:url(#SVGID_1_);}
	.st2{fill:#FFFFFF;}
</style>
<g>
	<g>
		<g>
			<path d="M303,147.1l-0.3,6.2c-0.2,4.2-3.5,12.3-14.5,12.4c-4.1,0-7.4-1.2-10-3.8c-3.9-3.9-8.6-13.1-8.6-34.8v-4.4
				c0-43,13.9-43,18.5-43l0.2,0c10.1-0.3,14.2,8.3,14.6,12.6l0.5,6h18l-0.8-7.3c-1.9-17.9-14.7-29-33.2-29c-0.1,0-0.2,0-0.4,0
				c-17.6,0-30.7,13.6-33.6,34.6c-1.5,7.7-2.2,18.5-2.1,29.2c0.3,8.6,1,16.6,2.1,23.1c2.8,21.1,15.8,34.6,33,34.6c0.2,0,0.4,0,0.6,0
				c19.3,0,31.6-10.6,33.6-29l0.8-7.3H303z"/>
			<path d="M524.4,114.6l-10.6-3.5c-9.1-2.9-12.7-7.4-12.8-16.1c0-9.7,6-15.7,15.6-15.7c10.9,0,13.5,6.2,13.5,8.4l0.2,6.4h17.1
				l0.3-6.3c0.3-5.8-2.2-11.9-6.7-16.7c-5.8-6.1-14.3-9.4-23.8-9.4c-10.5,0-19.3,3.4-25.3,9.7c-6.2,6.5-9.1,15.7-8.5,26.5
				c1.1,14.9,9.1,24.6,24.6,29.8l11.9,3.9c8.4,3.1,13.2,7,13.2,17.6c-0.1,10.6-6,16.7-16.1,16.7c-11.9,0-14.4-5.4-15.2-10.6
				l-0.9-5.5H484v6.6c0,13.6,11,27.4,32,27.4c21.3,0,35-13.6,35-34.6C551,131.5,542.3,120.2,524.4,114.6z"/>
			<path class="st0" d="M451,64.2h-15.9l-33.3,117.4h18.6l0.1-0.2h44.9l0.1,0.2h18.8L451,64.2z M426,162.3l3.7-13.4l5.3-19.1
				l8.2-29.4l7.1,25.9l4.7,17l5.2,19H426z"/>
			<polygon points="616.3,106.9 571,120.1 571,138.6 616.3,125.5 			"/>
			<rect x="556.5" y="63.8" width="18.3" height="117.5"/>
			
				<rect x="584.9" y="144.1" transform="matrix(-1.836970e-16 1 -1 -1.836970e-16 766.2557 -420.8903)" width="17.3" height="57.1"/>
			<rect x="584.9" y="43.9" transform="matrix(-1.836970e-16 1 -1 -1.836970e-16 666.0519 -521.0942)" width="17.3" height="57.1"/>
		</g>
		<polygon points="382.9,108.4 344.5,120.1 344.5,138.6 382.9,126.9 		"/>
		<rect x="328.1" y="63.8" width="18.3" height="117.5"/>
		<rect x="381.5" y="63.8" width="18.3" height="117.5"/>
	</g>
	<g>
		<linearGradient id="SVGID_1_" gradientUnits="userSpaceOnUse" x1="127.0202" y1="216.3219" x2="127.0202" y2="29.0279">
			<stop  offset="0" style="stop-color:#C10007"/>
			<stop  offset="4.907358e-02" style="stop-color:#CA0C06"/>
			<stop  offset="0.1795" style="stop-color:#DD2604"/>
			<stop  offset="0.3232" style="stop-color:#EC3B02"/>
			<stop  offset="0.4851" style="stop-color:#F74901"/>
			<stop  offset="0.6804" style="stop-color:#FD5100"/>
			<stop  offset="1" style="stop-color:#FF5400"/>
		</linearGradient>
		<polygon class="st1" points="127,175.5 82.5,96.8 172.6,96.3 208.1,75.9 208.1,75.9 127,29 45.9,75.9 45.9,169.5 127,216.3 
			127,175.5 		"/>
		<polygon points="127,175.5 127,216.3 127,216.3 190.4,179.8 141.1,151.2 		"/>
		<polygon points="173,96.3 158.8,120.7 208.1,149.3 208.1,75.9 172.6,96.3 		"/>
		<polygon class="st2" points="158.8,120.7 173,96.3 172.6,96.3 82.5,96.8 127,175.5 127,175.5 141.1,151.2 190.4,179.8 
			208.1,169.5 208.1,149.3 		"/>
	</g>
</g>
</svg>
