<svg xmlns="http://www.w3.org/2000/svg" xmlns:xlink="http://www.w3.org/1999/xlink" width="450" height="428" viewBox="0 0 450 428">
  <defs>
    <linearGradient id="linear-gradient" y1="0.5" x2="0.989" y2="0.5" gradientUnits="objectBoundingBox">
      <stop offset="0" stop-color="#272236" stop-opacity="0.8"/>
      <stop offset="0.64" stop-color="#2f136e" stop-opacity="0.776"/>
      <stop offset="1" stop-color="#8333d2" stop-opacity="0.459"/>
    </linearGradient>
  </defs>
  <g id="이미지_" data-name="이미지ㅣ" opacity="0.33" fill="url(#linear-gradient)">
    <path d="M7.3,0H442.7c4.03,0,7.3,6.226,7.3,13.906V414.094c0,7.68-3.267,13.906-7.3,13.906H7.3c-4.03,0-7.3-6.226-7.3-13.906V13.906C0,6.226,3.267,0,7.3,0Z" stroke="none"/>
    <path d="M 9.1097412109375 8 C 8.59979248046875 9.084197998046875 8 11.13253784179688 8 13.9061279296875 L 8 414.0938110351562 C 8 416.8674621582031 8.59979248046875 418.9158020019531 9.109771728515625 420 L 440.8902282714844 420 C 441.4002075195312 418.9158020019531 442 416.8674621582031 442 414.0938110351562 L 442 13.9061279296875 C 442 11.13253784179688 441.4002075195312 9.084197998046875 440.8902587890625 8 L 9.1097412109375 8 M 7.29730224609375 0 L 442.7026977539062 0 C 446.7328796386719 0 450 6.22601318359375 450 13.9061279296875 L 450 414.0938110351562 C 450 421.7739868164062 446.7328796386719 428 442.7026977539062 428 L 7.29730224609375 428 C 3.267120361328125 428 0 421.7739868164062 0 414.0938110351562 L 0 13.9061279296875 C 0 6.22601318359375 3.267120361328125 0 7.29730224609375 0 Z" stroke="none" fill="rgba(165,165,165,0.2)"/>
  </g>
</svg>
