<svg xmlns="http://www.w3.org/2000/svg" xmlns:xlink="http://www.w3.org/1999/xlink" width="239" height="227.316" viewBox="0 0 239 227.316">
  <defs>
    <linearGradient id="linear-gradient" y1="0.5" x2="0.989" y2="0.5" gradientUnits="objectBoundingBox">
      <stop offset="0" stop-color="#272236" stop-opacity="0.8"/>
      <stop offset="0.64" stop-color="#2f136e" stop-opacity="0.776"/>
      <stop offset="1" stop-color="#8333d2" stop-opacity="0.459"/>
    </linearGradient>
  </defs>
  <g id="이미지_" data-name="이미지ㅣ" opacity="0.33" fill="url(#linear-gradient)">
    <path d="M3.876,0H235.124C237.265,0,239,3.307,239,7.386V219.93c0,4.079-1.735,7.386-3.876,7.386H3.876c-2.14,0-3.876-3.307-3.876-7.386V7.386C0,3.307,1.735,0,3.876,0Z" stroke="none"/>
    <path d="M 8 8.000015258789062 L 8 219.3155517578125 L 231 219.3155517578125 L 231 8.000015258789062 L 8 8.000015258789062 M 3.875656127929688 1.52587890625e-05 L 235.1243133544922 1.52587890625e-05 C 237.2648010253906 1.52587890625e-05 239 3.306671142578125 239 7.385711669921875 L 239 219.9298248291016 C 239 224.0088653564453 237.2648010253906 227.3155517578125 235.1243133544922 227.3155517578125 L 3.875656127929688 227.3155517578125 C 1.735198974609375 227.3155517578125 0 224.0088653564453 0 219.9298248291016 L 0 7.385711669921875 C 0 3.306671142578125 1.735198974609375 1.52587890625e-05 3.875656127929688 1.52587890625e-05 Z" stroke="none" fill="rgba(165,165,165,0.2)"/>
  </g>
</svg>
