<svg xmlns="http://www.w3.org/2000/svg" width="400.5" height="380.92" viewBox="0 0 400.5 380.92">
  <g id="이미지_" data-name="이미지ㅣ" fill="none" opacity="0.33">
    <path d="M6.495,0H394.005c3.587,0,6.495,5.541,6.495,12.376V368.544c0,6.835-2.908,12.376-6.495,12.376H6.495C2.908,380.92,0,375.379,0,368.544V12.376C0,5.541,2.908,0,6.495,0Z" stroke="none"/>
    <path d="M 8.6961669921875 8 C 8.3623046875 8.88983154296875 8 10.35293579101562 8 12.37646484375 L 8 368.5435485839844 C 8 370.5670776367188 8.3623046875 372.0301818847656 8.6961669921875 372.9200134277344 L 391.8038330078125 372.9200134277344 C 392.1376953125 372.0301818847656 392.5 370.5670776367188 392.5 368.5435485839844 L 392.5 12.37646484375 C 392.5 10.35293579101562 392.1376953125 8.88983154296875 391.8038330078125 8 L 8.6961669921875 8 M 6.494598388671875 0 L 394.0054016113281 0 C 397.59228515625 0 400.5 5.5411376953125 400.5 12.37646484375 L 400.5 368.5435485839844 C 400.5 375.3788757324219 397.59228515625 380.9200134277344 394.0054016113281 380.9200134277344 L 6.494598388671875 380.9200134277344 C 2.90771484375 380.9200134277344 0 375.3788757324219 0 368.5435485839844 L 0 12.37646484375 C 0 5.5411376953125 2.90771484375 0 6.494598388671875 0 Z" stroke="none" fill="rgba(165,165,165,0.2)"/>
  </g>
</svg>
