<svg xmlns="http://www.w3.org/2000/svg" xmlns:xlink="http://www.w3.org/1999/xlink" width="194" height="184.516" viewBox="0 0 194 184.516">
  <defs>
    <linearGradient id="linear-gradient" y1="0.5" x2="0.989" y2="0.5" gradientUnits="objectBoundingBox">
      <stop offset="0" stop-color="#272236" stop-opacity="0.8"/>
      <stop offset="0.64" stop-color="#2f136e" stop-opacity="0.776"/>
      <stop offset="1" stop-color="#8333d2" stop-opacity="0.459"/>
    </linearGradient>
  </defs>
  <g id="이미지_" data-name="이미지ㅣ" opacity="0.33" fill="url(#linear-gradient)">
    <path d="M3.146,0H190.854C192.592,0,194,2.684,194,6V178.52c0,3.311-1.408,6-3.146,6H3.146c-1.737,0-3.146-2.684-3.146-6V6C0,2.684,1.408,0,3.146,0Z" stroke="none"/>
    <path d="M 8.000900268554688 7.999984741210938 L 8.076828002929688 176.5155487060547 L 185.9990997314453 176.5155487060547 L 185.9231719970703 7.999984741210938 L 8.000900268554688 7.999984741210938 M 3.14593505859375 -1.52587890625e-05 L 190.8540649414062 -1.52587890625e-05 C 192.5915374755859 -1.52587890625e-05 194 2.68408203125 194 5.995086669921875 L 194 178.5204467773438 C 194 181.8314514160156 192.5915374755859 184.5155487060547 190.8540649414062 184.5155487060547 L 3.14593505859375 184.5155487060547 C 1.408493041992188 184.5155487060547 0 181.8314514160156 0 178.5204467773438 L 0 5.995086669921875 C 0 2.68408203125 1.408493041992188 -1.52587890625e-05 3.14593505859375 -1.52587890625e-05 Z" stroke="none" fill="rgba(165,165,165,0.2)"/>
  </g>
</svg>
