<svg xmlns="http://www.w3.org/2000/svg" xmlns:xlink="http://www.w3.org/1999/xlink" width="134.25" height="127.687" viewBox="0 0 134.25 127.687">
  <defs>
    <linearGradient id="linear-gradient" y1="0.5" x2="0.989" y2="0.5" gradientUnits="objectBoundingBox">
      <stop offset="0" stop-color="#272236" stop-opacity="0.8"/>
      <stop offset="0.64" stop-color="#2f136e" stop-opacity="0.776"/>
      <stop offset="1" stop-color="#8333d2" stop-opacity="0.459"/>
    </linearGradient>
  </defs>
  <g id="이미지_" data-name="이미지ㅣ" opacity="0.33" fill="url(#linear-gradient)">
    <path d="M2.177,0h129.9c1.2,0,2.177,1.857,2.177,4.149V123.538c0,2.291-.975,4.149-2.177,4.149H2.177c-1.2,0-2.177-1.857-2.177-4.149V4.149C0,1.857.975,0,2.177,0Z" stroke="none"/>
    <path d="M 8 8.000007629394531 L 8 119.6866607666016 L 126.25 119.6866607666016 L 126.25 8.000007629394531 L 8 8.000007629394531 M 2.177032470703125 7.62939453125e-06 L 132.0729675292969 7.62939453125e-06 C 133.2752990722656 7.62939453125e-06 134.25 1.857406616210938 134.25 4.148658752441406 L 134.25 123.5379867553711 C 134.25 125.829231262207 133.2752990722656 127.6866607666016 132.0729675292969 127.6866607666016 L 2.177032470703125 127.6866607666016 C 0.97467041015625 127.6866607666016 0 125.829231262207 0 123.5379867553711 L 0 4.148658752441406 C 0 1.857406616210938 0.97467041015625 7.62939453125e-06 2.177032470703125 7.62939453125e-06 Z" stroke="none" fill="rgba(165,165,165,0.2)"/>
  </g>
</svg>
