<svg xmlns="http://www.w3.org/2000/svg" xmlns:xlink="http://www.w3.org/1999/xlink" width="1920" height="1555.445" viewBox="0 0 1920 1555.445">
  <defs>
    <clipPath id="clip-path">
      <rect id="사각형_253" data-name="사각형 253" width="1920" height="1555.445" stroke="#707070" stroke-width="1"/>
    </clipPath>
  </defs>
  <g id="그룹_1422" data-name="그룹 1422" clip-path="url(#clip-path)">
    <path id="패스_2828" data-name="패스 2828" d="M1132.565,598.274c-67.39-15.6-142.667-26.407-221.031-32.752v2.572c78.364,5.83,153.47,16.119,220.345,31.551,34.981,9.088,101,27.265,102.542,57.615-1.543,30.179-67.218,48.356-102.542,57.615-202,46.813-480.815,45.612-689.842,21.263C190.312,704.417,142.985,646.8,296.626,605.133l-3.6-6.345c-164.958,44.926-114.888,112.659,147.468,143.7,211.771,23.149,488.359,21.263,692.243-26.064,35.5-9.431,102.027-28.122,103.228-58.987C1234.592,626.4,1168.4,607.7,1132.565,598.274ZM549.894,562.95l3.6,5.316c64.646-4.458,132.893-6.859,201.483-6.345v-3.772C685.359,556.948,615.912,558.835,549.894,562.95Z" transform="translate(141.491 398.679)" fill="#75cef8" stroke="#707070" stroke-width="1" opacity="0.49"/>
  </g>
</svg>
