<svg xmlns="http://www.w3.org/2000/svg" width="1554.863" height="1002.971" viewBox="0 0 1554.863 1002.971">
  <g id="Pattern2" transform="translate(-19.943 -7.7)" opacity="0.08">
    <g id="그룹_15142" data-name="그룹 15142" transform="translate(120.093 246.829)">
      <path id="패스_39471" data-name="패스 39471" d="M75.6,600.672V77.04q0-.54.735-.54h1351q.736,0,.736.54V600.672q0,.54-.736.54h-1351A.692.692,0,0,1,75.6,600.672ZM76.826,77.58V600.132H1426.6V77.58Z" transform="translate(-75.6 -76.5)" fill="#fff"/>
    </g>
    <g id="그룹_15143" data-name="그룹 15143" transform="translate(384.878 292.596)">
      <path id="패스_39472" data-name="패스 39472" d="M123.4,535.021V102.08a.176.176,0,0,1,.18-.18H943.757a.176.176,0,0,1,.18.18V535.2a.176.176,0,0,1-.18.18H123.58C123.4,535.381,123.4,535.2,123.4,535.021Zm.54-432.761V534.841H943.757V102.26Z" transform="translate(-123.4 -101.9)" fill="#fff"/>
    </g>
    <g id="그룹_15144" data-name="그룹 15144" transform="translate(38.039 81.116)">
      <path id="패스_39473" data-name="패스 39473" d="M30,903.16V49.978c0-.739.36-1.478,1.08-1.478H61.31c.54,0,1.08.493,1.08,1.478s-.36,1.478-1.08,1.478H31.979V901.682H61.31c.54,0,1.08.493,1.08,1.478,0,.739-.36,1.478-1.08,1.478H30.9A1.522,1.522,0,0,1,30,903.16Z" transform="translate(-30 -48.5)" fill="#fff"/>
    </g>
    <g id="그룹_15145" data-name="그룹 15145" transform="translate(1507.832 81.116)">
      <path id="패스_39474" data-name="패스 39474" d="M646.9,903.226c0-.739.36-1.478,1.08-1.478H677.31V51.456H647.98c-.54,0-1.08-.493-1.08-1.478s.36-1.478,1.08-1.478h30.23c.54,0,1.08.493,1.08,1.478v853c0,.739-.36,1.478-1.08,1.478H647.98C647.26,904.458,646.9,903.965,646.9,903.226Z" transform="translate(-646.9 -48.5)" fill="#fff"/>
    </g>
    <g id="그룹_15146" data-name="그룹 15146" transform="translate(1528.166 82.196)">
      <rect id="사각형_6992" data-name="사각형 6992" width="10.976" height="80.794" fill="#fff"/>
    </g>
    <g id="그룹_15147" data-name="그룹 15147" transform="translate(38.939 410.868)">
      <rect id="사각형_6993" data-name="사각형 6993" width="13.136" height="192.358" fill="#fff"/>
    </g>
    <g id="그룹_15148" data-name="그룹 15148" transform="translate(1539.014 936.181)">
      <rect id="사각형_6994" data-name="사각형 6994" width="14.755" height="14.755" transform="translate(14.755) rotate(90)" fill="#fff"/>
    </g>
    <g id="그룹_15149" data-name="그룹 15149" transform="translate(19.943 63.116)">
      <rect id="사각형_6995" data-name="사각형 6995" width="19.074" height="19.074" transform="translate(19.074) rotate(90)" fill="#fff"/>
    </g>
    <g id="그룹_15150" data-name="그룹 15150" transform="translate(138.987 81.656)">
      <path id="패스_39475" data-name="패스 39475" d="M86.1,49.34q0-.54.753-.54H1356.3q.753,0,.753.54t-.753.54H86.6A.5.5,0,0,1,86.1,49.34Z" transform="translate(-86.1 -48.8)" fill="#fff"/>
    </g>
    <g id="그룹_15151" data-name="그룹 15151" transform="translate(120.093 246.935)">
      <path id="패스_39476" data-name="패스 39476" d="M75.6,600.625c0-.18.245-.36.245-.36L1426.882,76.633c.245-.18.735,0,.981.18s0,.54-.245.72L76.581,600.985c-.245.18-.735,0-.981-.18Z" transform="translate(-75.6 -76.559)" fill="#fff"/>
    </g>
    <g id="그룹_15152" data-name="그룹 15152" transform="translate(787.289 80.757)">
      <path id="패스_39477" data-name="패스 39477" d="M324,49.74a1.419,1.419,0,0,1,1.44-1.44H623.964a1.419,1.419,0,0,1,1.44,1.44,1.548,1.548,0,0,1-1.44,1.44H325.44C324.72,51.359,324,50.639,324,49.74Z" transform="translate(-324 -48.3)" fill="#fff"/>
    </g>
    <g id="그룹_15153" data-name="그룹 15153" transform="translate(138.987 935.634)">
      <path id="패스_39478" data-name="패스 39478" d="M86.1,395.74q0-.54.753-.54H1356.3q.753,0,.753.54t-.753.54H86.6C86.351,396.1,86.1,395.92,86.1,395.74Z" transform="translate(-86.1 -395.2)" fill="#fff"/>
    </g>
    <g id="그룹_15154" data-name="그룹 15154" transform="translate(323.452 934.735)">
      <path id="패스_39479" data-name="패스 39479" d="M140.2,396.139a1.419,1.419,0,0,1,1.44-1.44h298.7a1.44,1.44,0,0,1,0,2.879H141.819A1.586,1.586,0,0,1,140.2,396.139Z" transform="translate(-140.2 -394.7)" fill="#fff"/>
    </g>
    <g id="그룹_15155" data-name="그룹 15155" transform="translate(1462.847 174.702)">
      <path id="패스_39480" data-name="패스 39480" d="M621.9,76.8v90.871l9.177,9.177L630.537,76.8Z" transform="translate(-621.9 -76.8)" fill="#fff"/>
    </g>
    <g id="그룹_15156" data-name="그룹 15156" transform="translate(120.633 873.734)">
      <path id="패스_39481" data-name="패스 39481" d="M159.933,373.4l-12.776-12.6H75.9v11.876Z" transform="translate(-75.9 -360.8)" fill="#fff"/>
    </g>
    <g id="그룹_15157" data-name="그룹 15157" transform="translate(1557.192 82.297)">
      <rect id="사각형_6996" data-name="사각형 6996" width="25.912" height="4.858" transform="translate(4.858) rotate(90)" fill="#fff"/>
    </g>
    <g id="그룹_15158" data-name="그룹 15158" transform="translate(1557.24 119.593)">
      <rect id="사각형_6997" data-name="사각형 6997" width="4.858" height="4.858" transform="translate(4.858) rotate(90)" fill="#fff"/>
    </g>
    <g id="그룹_15159" data-name="그룹 15159" transform="translate(1562.927 386.196)">
      <rect id="사각형_6998" data-name="사각형 6998" width="15.475" height="6.478" transform="translate(6.478) rotate(90)" fill="#fff"/>
    </g>
    <g id="그룹_15160" data-name="그룹 15160" transform="translate(1569.408 457.024)">
      <rect id="사각형_6999" data-name="사각형 6999" width="49.304" height="5.398" transform="translate(5.398) rotate(90)" fill="#fff"/>
    </g>
    <g id="그룹_15161" data-name="그룹 15161" transform="translate(65.079 112.977)">
      <rect id="사각형_7000" data-name="사각형 7000" width="19.074" height="7.917" transform="translate(7.917) rotate(90)" fill="#fff"/>
    </g>
    <g id="그룹_15162" data-name="그룹 15162" transform="translate(64.986 675.499)">
      <rect id="사각형_7001" data-name="사각형 7001" width="16.375" height="7.917" transform="translate(7.917) rotate(90)" fill="#fff"/>
    </g>
    <g id="그룹_15163" data-name="그룹 15163" transform="translate(65.045 717.304)">
      <rect id="사각형_7002" data-name="사각형 7002" width="6.298" height="7.917" transform="translate(7.917) rotate(90)" fill="#fff"/>
    </g>
    <g id="그룹_15164" data-name="그룹 15164" transform="translate(890.953 886.306)">
      <rect id="사각형_7003" data-name="사각형 7003" width="26.092" height="10.257" transform="translate(10.257) rotate(90)" fill="#fff"/>
    </g>
    <g id="그룹_15165" data-name="그룹 15165" transform="translate(890.906 923.338)">
      <rect id="사각형_7004" data-name="사각형 7004" width="5.218" height="10.257" transform="translate(10.257) rotate(90)" fill="#fff"/>
    </g>
    <g id="그룹_15166" data-name="그룹 15166" transform="translate(430.033 82.343)">
      <rect id="사각형_7005" data-name="사각형 7005" width="18.894" height="12.956" transform="translate(12.956) rotate(90)" fill="#fff"/>
    </g>
    <g id="그룹_15167" data-name="그룹 15167" transform="translate(987.804 122.503)">
      <path id="패스_39482" data-name="패스 39482" d="M411.9,80.857c0-.18,0-.18.18-.36L420.9,71.68c.18-.18.18-.18.36-.18H631.25c.18,0,.18,0,.36.18l9,9a.509.509,0,0,1-.72.72L631.07,72.58H421.257l-8.637,8.637a.547.547,0,0,1-.72,0C411.9,81.037,411.9,81.037,411.9,80.857Z" transform="translate(-411.9 -71.5)" fill="#fff"/>
    </g>
    <g id="그룹_15168" data-name="그룹 15168" transform="translate(142.586 885.835)">
      <path id="패스_39483" data-name="패스 39483" d="M88.1,368.56c0-.18,0-.18.18-.36a.547.547,0,0,1,.72,0l8.637,8.637H207.582l9.177-9.177a.509.509,0,0,1,.72.72l-9.177,9.177c-.18.18-.18.18-.36.18H97.277c-.18,0-.18,0-.36-.18L88.1,368.74Z" transform="translate(-88.1 -367.525)" fill="#fff"/>
    </g>
    <g id="그룹_15169" data-name="그룹 15169" transform="translate(120.093 246.816)">
      <path id="패스_39484" data-name="패스 39484" d="M75.6,76.993v-.18a.892.892,0,0,1,.979-.18L1425.056,600.085h8.809V557.439l-9.543-7.018a.445.445,0,0,1,0-.72.955.955,0,0,1,.979,0l9.543,7.018c.245.18.245.18.245.36v43.186q0,.54-.734.54h-9.787L75.845,77.533A.56.56,0,0,1,75.6,76.993Z" transform="translate(-75.6 -76.559)" fill="#fff"/>
    </g>
    <g id="그룹_15170" data-name="그룹 15170" transform="translate(120.093 188.302)">
      <path id="패스_39485" data-name="패스 39485" d="M75.6,295.431c0-.18,0-.18.18-.36l7.018-7.018V79.14a.54.54,0,0,1,1.08,0V288.413c0,.18,0,.18-.18.36L76.68,295.79a.547.547,0,0,1-.72,0C75.6,295.61,75.6,295.61,75.6,295.431Z" transform="translate(-75.6 -78.6)" fill="#fff"/>
    </g>
    <g id="그룹_15171" data-name="그룹 15171" transform="translate(1169.333 898.746)">
      <path id="패스_39486" data-name="패스 39486" d="M505.4,375.24a.477.477,0,0,1,.54-.54h54.882a.54.54,0,0,1,0,1.08H505.94A.477.477,0,0,1,505.4,375.24Z" transform="translate(-505.4 -374.7)" fill="#fff"/>
    </g>
    <g id="그룹_15172" data-name="그룹 15172" transform="translate(513.673 122.503)">
      <path id="패스_39487" data-name="패스 39487" d="M229.8,72.04a.477.477,0,0,1,.54-.54h24.112a.54.54,0,0,1,0,1.08H230.34A.811.811,0,0,1,229.8,72.04Z" transform="translate(-229.8 -71.5)" fill="#fff"/>
    </g>
    <g id="그룹_15173" data-name="그룹 15173" transform="translate(404.321 63.302)">
      <path id="패스_39488" data-name="패스 39488" d="M184.1,57.494V39.14a.54.54,0,1,1,1.08,0V57.674a.477.477,0,0,1-.54.54C184.46,58.034,184.1,57.854,184.1,57.494Z" transform="translate(-184.1 -38.6)" fill="#fff"/>
    </g>
    <g id="그룹_15174" data-name="그룹 15174" transform="translate(1348.403 935.454)">
      <path id="패스_39489" data-name="패스 39489" d="M558.3,422.091V395.64a.54.54,0,0,1,1.08,0v26.452a.54.54,0,0,1-1.08,0Z" transform="translate(-558.3 -395.1)" fill="#fff"/>
    </g>
    <g id="그룹_15175" data-name="그룹 15175" transform="translate(1408.684 885.79)">
      <path id="패스_39490" data-name="패스 39490" d="M591.8,377.037v-9a.54.54,0,0,1,1.08,0v9a.477.477,0,0,1-.54.54A.575.575,0,0,1,591.8,377.037Z" transform="translate(-591.8 -367.5)" fill="#fff"/>
    </g>
    <g id="그룹_15176" data-name="그룹 15176" transform="translate(830.713 122.503)">
      <path id="패스_39491" data-name="패스 39491" d="M366.2,81.037v-9a.54.54,0,1,1,1.08,0v9a.477.477,0,0,1-.54.54A.575.575,0,0,1,366.2,81.037Z" transform="translate(-366.2 -71.5)" fill="#fff"/>
    </g>
    <g id="그룹_15177" data-name="그룹 15177" transform="translate(1416.241 111.527)">
      <path id="패스_39492" data-name="패스 39492" d="M596,85.913V65.94a.54.54,0,1,1,1.08,0V85.913a.477.477,0,0,1-.54.54A.575.575,0,0,1,596,85.913Z" transform="translate(-596 -65.4)" fill="#fff"/>
    </g>
    <g id="그룹_15178" data-name="그룹 15178" transform="translate(97.96 753.859)">
      <path id="패스_39493" data-name="패스 39493" d="M63.3,327.44a.477.477,0,0,1,.54-.54H85.973a.54.54,0,1,1,0,1.08H63.84A.477.477,0,0,1,63.3,327.44Z" transform="translate(-63.3 -326.9)" fill="#fff"/>
    </g>
    <g id="그룹_15179" data-name="그룹 15179" transform="translate(1471.484 668.536)">
      <path id="패스_39494" data-name="패스 39494" d="M626.7,290.94a.477.477,0,0,1,.54-.54h14.216a.54.54,0,0,1,0,1.08H627.24A.477.477,0,0,1,626.7,290.94Z" transform="translate(-626.7 -290.4)" fill="#fff"/>
    </g>
    <g id="그룹_15188" data-name="그룹 15188" transform="translate(846.904 251.053)">
      <g id="그룹_15180" data-name="그룹 15180" transform="translate(78.095)">
        <path id="패스_39495" data-name="패스 39495" d="M410.2,121.017c0-.18,0-.18.18-.36l9-9a.509.509,0,0,1,.72.72l-9,9a.547.547,0,0,1-.72,0C410.2,121.377,410.2,121.2,410.2,121.017Z" transform="translate(-410.2 -111.525)" fill="#fff"/>
      </g>
      <g id="그룹_15181" data-name="그룹 15181" transform="translate(66.939)">
        <path id="패스_39496" data-name="패스 39496" d="M404,121.017c0-.18,0-.18.18-.36l9-9a.509.509,0,0,1,.72.72l-9,9a.547.547,0,0,1-.72,0C404,121.377,404,121.2,404,121.017Z" transform="translate(-404 -111.525)" fill="#fff"/>
      </g>
      <g id="그룹_15182" data-name="그룹 15182" transform="translate(55.782)">
        <path id="패스_39497" data-name="패스 39497" d="M397.8,121.017c0-.18,0-.18.18-.36l9-9a.509.509,0,1,1,.72.72l-9,9a.547.547,0,0,1-.72,0C397.8,121.377,397.8,121.2,397.8,121.017Z" transform="translate(-397.8 -111.525)" fill="#fff"/>
      </g>
      <g id="그룹_15183" data-name="그룹 15183" transform="translate(44.626)">
        <path id="패스_39498" data-name="패스 39498" d="M391.6,121.017c0-.18,0-.18.18-.36l9-9a.509.509,0,0,1,.72.72l-9,9a.547.547,0,0,1-.72,0C391.6,121.377,391.6,121.2,391.6,121.017Z" transform="translate(-391.6 -111.525)" fill="#fff"/>
      </g>
      <g id="그룹_15184" data-name="그룹 15184" transform="translate(33.469)">
        <path id="패스_39499" data-name="패스 39499" d="M385.4,121.017c0-.18,0-.18.18-.36l9-9a.509.509,0,0,1,.72.72l-9,9a.547.547,0,0,1-.72,0C385.4,121.377,385.4,121.2,385.4,121.017Z" transform="translate(-385.4 -111.525)" fill="#fff"/>
      </g>
      <g id="그룹_15185" data-name="그룹 15185" transform="translate(22.313)">
        <path id="패스_39500" data-name="패스 39500" d="M379.2,121.017c0-.18,0-.18.18-.36l9-9a.509.509,0,0,1,.72.72l-9,9a.547.547,0,0,1-.72,0A.628.628,0,0,1,379.2,121.017Z" transform="translate(-379.2 -111.525)" fill="#fff"/>
      </g>
      <g id="그룹_15186" data-name="그룹 15186" transform="translate(11.156)">
        <path id="패스_39501" data-name="패스 39501" d="M373,121.017c0-.18,0-.18.18-.36l9-9a.509.509,0,1,1,.72.72l-9,9a.547.547,0,0,1-.72,0A.628.628,0,0,1,373,121.017Z" transform="translate(-373 -111.525)" fill="#fff"/>
      </g>
      <g id="그룹_15187" data-name="그룹 15187">
        <path id="패스_39502" data-name="패스 39502" d="M366.8,121.017c0-.18,0-.18.18-.36l9-9a.509.509,0,0,1,.72.72l-9,9a.547.547,0,0,1-.72,0A.628.628,0,0,1,366.8,121.017Z" transform="translate(-366.8 -111.525)" fill="#fff"/>
      </g>
    </g>
    <g id="그룹_15197" data-name="그룹 15197" transform="translate(160.76 571.694)">
      <g id="그룹_15189" data-name="그룹 15189" transform="translate(0 77.915)">
        <path id="패스_39503" data-name="패스 39503" d="M98.2,285.92c0-.18,0-.18.18-.36a.547.547,0,0,1,.72,0l9,9a.509.509,0,0,1-.72.72l-9-9A.629.629,0,0,1,98.2,285.92Z" transform="translate(-98.2 -285.425)" fill="#fff"/>
      </g>
      <g id="그룹_15190" data-name="그룹 15190" transform="translate(0 66.759)">
        <path id="패스_39504" data-name="패스 39504" d="M98.2,279.72c0-.18,0-.18.18-.36a.547.547,0,0,1,.72,0l9,9a.509.509,0,1,1-.72.72l-9-9A.628.628,0,0,1,98.2,279.72Z" transform="translate(-98.2 -279.225)" fill="#fff"/>
      </g>
      <g id="그룹_15191" data-name="그룹 15191" transform="translate(0 55.602)">
        <path id="패스_39505" data-name="패스 39505" d="M98.2,273.52c0-.18,0-.18.18-.36a.547.547,0,0,1,.72,0l9,9a.509.509,0,1,1-.72.72l-9-9A.628.628,0,0,1,98.2,273.52Z" transform="translate(-98.2 -273.025)" fill="#fff"/>
      </g>
      <g id="그룹_15192" data-name="그룹 15192" transform="translate(0 44.446)">
        <path id="패스_39506" data-name="패스 39506" d="M98.2,267.32c0-.18,0-.18.18-.36a.547.547,0,0,1,.72,0l9,9a.509.509,0,0,1-.72.72l-9-9A.628.628,0,0,1,98.2,267.32Z" transform="translate(-98.2 -266.825)" fill="#fff"/>
      </g>
      <g id="그룹_15193" data-name="그룹 15193" transform="translate(0 33.289)">
        <path id="패스_39507" data-name="패스 39507" d="M98.2,261.12c0-.18,0-.18.18-.36a.547.547,0,0,1,.72,0l9,9a.509.509,0,1,1-.72.72l-9-9A.628.628,0,0,1,98.2,261.12Z" transform="translate(-98.2 -260.625)" fill="#fff"/>
      </g>
      <g id="그룹_15194" data-name="그룹 15194" transform="translate(0 22.133)">
        <path id="패스_39508" data-name="패스 39508" d="M98.2,254.92c0-.18,0-.18.18-.36a.547.547,0,0,1,.72,0l9,9a.509.509,0,0,1-.72.72l-9-9A.628.628,0,0,1,98.2,254.92Z" transform="translate(-98.2 -254.425)" fill="#fff"/>
      </g>
      <g id="그룹_15195" data-name="그룹 15195" transform="translate(0 11.156)">
        <path id="패스_39509" data-name="패스 39509" d="M98.2,248.82c0-.18,0-.18.18-.36a.547.547,0,0,1,.72,0l9,9a.509.509,0,1,1-.72.72l-9-9A.628.628,0,0,0,98.2,248.82Z" transform="translate(-98.2 -248.325)" fill="#fff"/>
      </g>
      <g id="그룹_15196" data-name="그룹 15196">
        <path id="패스_39510" data-name="패스 39510" d="M98.2,242.62c0-.18,0-.18.18-.36a.547.547,0,0,1,.72,0l9,9a.509.509,0,0,1-.72.72l-9-9A.628.628,0,0,0,98.2,242.62Z" transform="translate(-98.2 -242.125)" fill="#fff"/>
      </g>
    </g>
    <g id="그룹_15198" data-name="그룹 15198" transform="translate(1364.058 694.888)">
      <path id="패스_39511" data-name="패스 39511" d="M567,382.092V293.38a.18.18,0,1,1,.36,0v88.712a.176.176,0,0,1-.18.18C567.18,382.451,567,382.271,567,382.092Z" transform="translate(-567 -293.2)" fill="#fff"/>
    </g>
    <g id="그룹_15199" data-name="그룹 15199" transform="translate(228.239 234.794)">
      <path id="패스_39512" data-name="패스 39512" d="M135.7,194.93V102.08a.18.18,0,0,1,.36,0v93.03a.176.176,0,0,1-.18.18A.628.628,0,0,1,135.7,194.93Z" transform="translate(-135.7 -101.9)" fill="#fff"/>
    </g>
    <g id="그룹_15200" data-name="그룹 15200" transform="translate(797.121 8.42)">
      <path id="패스_39513" data-name="패스 39513" d="M351.9,359.168V8.28a.18.18,0,1,1,.36,0V359.168a.18.18,0,1,1-.36,0Z" transform="translate(-351.9 -8.1)" fill="#fff"/>
    </g>
    <g id="그룹_15201" data-name="그룹 15201" transform="translate(797.121 658.703)">
      <path id="패스_39514" data-name="패스 39514" d="M351.9,592.368V241.48a.18.18,0,0,1,.36,0V592.368a.18.18,0,0,1-.36,0Z" transform="translate(-351.9 -241.3)" fill="#fff"/>
    </g>
    <g id="그룹_15202" data-name="그룹 15202" transform="translate(790.83 115.2)">
      <rect id="사각형_7006" data-name="사각형 7006" width="33.649" height="5.758" transform="translate(5.758) rotate(90)" fill="#fff"/>
    </g>
    <g id="그룹_15203" data-name="그룹 15203" transform="translate(790.799 869.465)">
      <rect id="사각형_7007" data-name="사각형 7007" width="33.649" height="5.758" transform="translate(5.758) rotate(90)" fill="#fff"/>
    </g>
    <g id="그룹_15204" data-name="그룹 15204" transform="translate(794.242 980.98)">
      <path id="패스_39515" data-name="패스 39515" d="M356.418,447.032V423.459a3.033,3.033,0,0,0-3.059-3.059h0a3.033,3.033,0,0,0-3.059,3.059v23.573a3.033,3.033,0,0,0,3.059,3.059h0A3.033,3.033,0,0,0,356.418,447.032Z" transform="translate(-350.3 -420.4)" fill="#fff"/>
    </g>
    <g id="그룹_15205" data-name="그룹 15205" transform="translate(794.242 7.7)">
      <path id="패스_39516" data-name="패스 39516" d="M356.418,34.511V10.759A3.033,3.033,0,0,0,353.359,7.7h0a3.033,3.033,0,0,0-3.059,3.059V34.331a3.033,3.033,0,0,0,3.059,3.059h0A2.888,2.888,0,0,0,356.418,34.511Z" transform="translate(-350.3 -7.7)" fill="#fff"/>
    </g>
    <g id="그룹_15206" data-name="그룹 15206" transform="translate(1373.653 228.852)">
      <rect id="사각형_7008" data-name="사각형 7008" width="12.596" height="12.596" transform="translate(12.596) rotate(90)" fill="#fff"/>
    </g>
    <g id="그룹_15207" data-name="그룹 15207" transform="translate(206.272 560.816)">
      <rect id="사각형_7009" data-name="사각형 7009" width="7.378" height="7.378" transform="translate(7.378) rotate(90)" fill="#fff"/>
    </g>
    <g id="그룹_15208" data-name="그룹 15208" transform="translate(789.777 783.127)">
      <rect id="사각형_7010" data-name="사각형 7010" width="6.658" height="6.658" transform="translate(6.658) rotate(90)" fill="#fff"/>
    </g>
    <g id="그룹_15209" data-name="그룹 15209" transform="translate(798.733 228.613)">
      <rect id="사각형_7011" data-name="사각형 7011" width="8.097" height="8.097" transform="translate(8.097) rotate(90)" fill="#fff"/>
    </g>
    <g id="그룹_15210" data-name="그룹 15210" transform="translate(1408.504 242.729)">
      <path id="패스_39517" data-name="패스 39517" d="M591.7,449.505h0l12.416-12.6V91.78a.18.18,0,1,1,.36,0V437.089L592.06,449.505c0,.18-.18.18-.36,0Z" transform="translate(-591.7 -91.6)" fill="#fff"/>
    </g>
    <g id="그룹_15211" data-name="그룹 15211" transform="translate(174.256 416.762)">
      <path id="패스_39518" data-name="패스 39518" d="M105.7,155.232h0c.18-.36.36-.36.36-.18l12.416,12.416V503.061a.176.176,0,0,1-.18.18l-.18-.18V167.648L105.7,155.232Z" transform="translate(-105.7 -154.934)" fill="#fff"/>
    </g>
  </g>
</svg>
