<svg xmlns="http://www.w3.org/2000/svg" width="1554.863" height="1002.971" viewBox="0 0 1554.863 1002.971"><g transform="translate(-19.943 -7.7)" opacity="0.08"><g transform="translate(120.093 246.829)"><path d="M75.6,600.672V77.04q0-.54.735-.54h1351q.736,0,.736.54V600.672q0,.54-.736.54h-1351A.692.692,0,0,1,75.6,600.672ZM76.826,77.58V600.132H1426.6V77.58Z" transform="translate(-75.6 -76.5)" fill="#fff"/></g><g transform="translate(384.878 292.596)"><path d="M123.4,535.021V102.08a.176.176,0,0,1,.18-.18H943.757a.176.176,0,0,1,.18.18V535.2a.176.176,0,0,1-.18.18H123.58C123.4,535.381,123.4,535.2,123.4,535.021Zm.54-432.761V534.841H943.757V102.26Z" transform="translate(-123.4 -101.9)" fill="#fff"/></g><g transform="translate(38.039 81.116)"><path d="M30,903.16V49.978c0-.739.36-1.478,1.08-1.478H61.31c.54,0,1.08.493,1.08,1.478s-.36,1.478-1.08,1.478H31.979V901.682H61.31c.54,0,1.08.493,1.08,1.478,0,.739-.36,1.478-1.08,1.478H30.9A1.522,1.522,0,0,1,30,903.16Z" transform="translate(-30 -48.5)" fill="#fff"/></g><g transform="translate(1507.832 81.116)"><path d="M646.9,903.226c0-.739.36-1.478,1.08-1.478H677.31V51.456H647.98c-.54,0-1.08-.493-1.08-1.478s.36-1.478,1.08-1.478h30.23c.54,0,1.08.493,1.08,1.478v853c0,.739-.36,1.478-1.08,1.478H647.98C647.26,904.458,646.9,903.965,646.9,903.226Z" transform="translate(-646.9 -48.5)" fill="#fff"/></g><g transform="translate(1528.166 82.196)"><rect width="10.976" height="80.794" fill="#fff"/></g><g transform="translate(38.939 410.868)"><rect width="13.136" height="192.358" fill="#fff"/></g><g transform="translate(1539.014 936.181)"><rect width="14.755" height="14.755" transform="translate(14.755) rotate(90)" fill="#fff"/></g><g transform="translate(19.943 63.116)"><rect width="19.074" height="19.074" transform="translate(19.074) rotate(90)" fill="#fff"/></g><g transform="translate(138.987 81.656)"><path d="M86.1,49.34q0-.54.753-.54H1356.3q.753,0,.753.54t-.753.54H86.6A.5.5,0,0,1,86.1,49.34Z" transform="translate(-86.1 -48.8)" fill="#fff"/></g><g transform="translate(120.093 246.935)"><path d="M75.6,600.625c0-.18.245-.36.245-.36L1426.882,76.633c.245-.18.735,0,.981.18s0,.54-.245.72L76.581,600.985c-.245.18-.735,0-.981-.18Z" transform="translate(-75.6 -76.559)" fill="#fff"/></g><g transform="translate(787.289 80.757)"><path d="M324,49.74a1.419,1.419,0,0,1,1.44-1.44H623.964a1.419,1.419,0,0,1,1.44,1.44,1.548,1.548,0,0,1-1.44,1.44H325.44C324.72,51.359,324,50.639,324,49.74Z" transform="translate(-324 -48.3)" fill="#fff"/></g><g transform="translate(138.987 935.634)"><path d="M86.1,395.74q0-.54.753-.54H1356.3q.753,0,.753.54t-.753.54H86.6C86.351,396.1,86.1,395.92,86.1,395.74Z" transform="translate(-86.1 -395.2)" fill="#fff"/></g><g transform="translate(323.452 934.735)"><path d="M140.2,396.139a1.419,1.419,0,0,1,1.44-1.44h298.7a1.44,1.44,0,0,1,0,2.879H141.819A1.586,1.586,0,0,1,140.2,396.139Z" transform="translate(-140.2 -394.7)" fill="#fff"/></g><g transform="translate(1462.847 174.702)"><path d="M621.9,76.8v90.871l9.177,9.177L630.537,76.8Z" transform="translate(-621.9 -76.8)" fill="#fff"/></g><g transform="translate(120.633 873.734)"><path d="M159.933,373.4l-12.776-12.6H75.9v11.876Z" transform="translate(-75.9 -360.8)" fill="#fff"/></g><g transform="translate(1557.192 82.297)"><rect width="25.912" height="4.858" transform="translate(4.858) rotate(90)" fill="#fff"/></g><g transform="translate(1557.24 119.593)"><rect width="4.858" height="4.858" transform="translate(4.858) rotate(90)" fill="#fff"/></g><g transform="translate(1562.927 386.196)"><rect width="15.475" height="6.478" transform="translate(6.478) rotate(90)" fill="#fff"/></g><g transform="translate(1569.408 457.024)"><rect width="49.304" height="5.398" transform="translate(5.398) rotate(90)" fill="#fff"/></g><g transform="translate(65.079 112.977)"><rect width="19.074" height="7.917" transform="translate(7.917) rotate(90)" fill="#fff"/></g><g transform="translate(64.986 675.499)"><rect width="16.375" height="7.917" transform="translate(7.917) rotate(90)" fill="#fff"/></g><g transform="translate(65.045 717.304)"><rect width="6.298" height="7.917" transform="translate(7.917) rotate(90)" fill="#fff"/></g><g transform="translate(890.953 886.306)"><rect width="26.092" height="10.257" transform="translate(10.257) rotate(90)" fill="#fff"/></g><g transform="translate(890.906 923.338)"><rect width="5.218" height="10.257" transform="translate(10.257) rotate(90)" fill="#fff"/></g><g transform="translate(430.033 82.343)"><rect width="18.894" height="12.956" transform="translate(12.956) rotate(90)" fill="#fff"/></g><g transform="translate(987.804 122.503)"><path d="M411.9,80.857c0-.18,0-.18.18-.36L420.9,71.68c.18-.18.18-.18.36-.18H631.25c.18,0,.18,0,.36.18l9,9a.509.509,0,0,1-.72.72L631.07,72.58H421.257l-8.637,8.637a.547.547,0,0,1-.72,0C411.9,81.037,411.9,81.037,411.9,80.857Z" transform="translate(-411.9 -71.5)" fill="#fff"/></g><g transform="translate(142.586 885.835)"><path d="M88.1,368.56c0-.18,0-.18.18-.36a.547.547,0,0,1,.72,0l8.637,8.637H207.582l9.177-9.177a.509.509,0,0,1,.72.72l-9.177,9.177c-.18.18-.18.18-.36.18H97.277c-.18,0-.18,0-.36-.18L88.1,368.74Z" transform="translate(-88.1 -367.525)" fill="#fff"/></g><g transform="translate(120.093 246.816)"><path d="M75.6,76.993v-.18a.892.892,0,0,1,.979-.18L1425.056,600.085h8.809V557.439l-9.543-7.018a.445.445,0,0,1,0-.72.955.955,0,0,1,.979,0l9.543,7.018c.245.18.245.18.245.36v43.186q0,.54-.734.54h-9.787L75.845,77.533A.56.56,0,0,1,75.6,76.993Z" transform="translate(-75.6 -76.559)" fill="#fff"/></g><g transform="translate(120.093 188.302)"><path d="M75.6,295.431c0-.18,0-.18.18-.36l7.018-7.018V79.14a.54.54,0,0,1,1.08,0V288.413c0,.18,0,.18-.18.36L76.68,295.79a.547.547,0,0,1-.72,0C75.6,295.61,75.6,295.61,75.6,295.431Z" transform="translate(-75.6 -78.6)" fill="#fff"/></g><g transform="translate(1169.333 898.746)"><path d="M505.4,375.24a.477.477,0,0,1,.54-.54h54.882a.54.54,0,0,1,0,1.08H505.94A.477.477,0,0,1,505.4,375.24Z" transform="translate(-505.4 -374.7)" fill="#fff"/></g><g transform="translate(513.673 122.503)"><path d="M229.8,72.04a.477.477,0,0,1,.54-.54h24.112a.54.54,0,0,1,0,1.08H230.34A.811.811,0,0,1,229.8,72.04Z" transform="translate(-229.8 -71.5)" fill="#fff"/></g><g transform="translate(404.321 63.302)"><path d="M184.1,57.494V39.14a.54.54,0,1,1,1.08,0V57.674a.477.477,0,0,1-.54.54C184.46,58.034,184.1,57.854,184.1,57.494Z" transform="translate(-184.1 -38.6)" fill="#fff"/></g><g transform="translate(1348.403 935.454)"><path d="M558.3,422.091V395.64a.54.54,0,0,1,1.08,0v26.452a.54.54,0,0,1-1.08,0Z" transform="translate(-558.3 -395.1)" fill="#fff"/></g><g transform="translate(1408.684 885.79)"><path d="M591.8,377.037v-9a.54.54,0,0,1,1.08,0v9a.477.477,0,0,1-.54.54A.575.575,0,0,1,591.8,377.037Z" transform="translate(-591.8 -367.5)" fill="#fff"/></g><g transform="translate(830.713 122.503)"><path d="M366.2,81.037v-9a.54.54,0,1,1,1.08,0v9a.477.477,0,0,1-.54.54A.575.575,0,0,1,366.2,81.037Z" transform="translate(-366.2 -71.5)" fill="#fff"/></g><g transform="translate(1416.241 111.527)"><path d="M596,85.913V65.94a.54.54,0,1,1,1.08,0V85.913a.477.477,0,0,1-.54.54A.575.575,0,0,1,596,85.913Z" transform="translate(-596 -65.4)" fill="#fff"/></g><g transform="translate(97.96 753.859)"><path d="M63.3,327.44a.477.477,0,0,1,.54-.54H85.973a.54.54,0,1,1,0,1.08H63.84A.477.477,0,0,1,63.3,327.44Z" transform="translate(-63.3 -326.9)" fill="#fff"/></g><g transform="translate(1471.484 668.536)"><path d="M626.7,290.94a.477.477,0,0,1,.54-.54h14.216a.54.54,0,0,1,0,1.08H627.24A.477.477,0,0,1,626.7,290.94Z" transform="translate(-626.7 -290.4)" fill="#fff"/></g><g transform="translate(846.904 251.053)"><g transform="translate(78.095)"><path d="M410.2,121.017c0-.18,0-.18.18-.36l9-9a.509.509,0,0,1,.72.72l-9,9a.547.547,0,0,1-.72,0C410.2,121.377,410.2,121.2,410.2,121.017Z" transform="translate(-410.2 -111.525)" fill="#fff"/></g><g transform="translate(66.939)"><path d="M404,121.017c0-.18,0-.18.18-.36l9-9a.509.509,0,0,1,.72.72l-9,9a.547.547,0,0,1-.72,0C404,121.377,404,121.2,404,121.017Z" transform="translate(-404 -111.525)" fill="#fff"/></g><g transform="translate(55.782)"><path d="M397.8,121.017c0-.18,0-.18.18-.36l9-9a.509.509,0,1,1,.72.72l-9,9a.547.547,0,0,1-.72,0C397.8,121.377,397.8,121.2,397.8,121.017Z" transform="translate(-397.8 -111.525)" fill="#fff"/></g><g transform="translate(44.626)"><path d="M391.6,121.017c0-.18,0-.18.18-.36l9-9a.509.509,0,0,1,.72.72l-9,9a.547.547,0,0,1-.72,0C391.6,121.377,391.6,121.2,391.6,121.017Z" transform="translate(-391.6 -111.525)" fill="#fff"/></g><g transform="translate(33.469)"><path d="M385.4,121.017c0-.18,0-.18.18-.36l9-9a.509.509,0,0,1,.72.72l-9,9a.547.547,0,0,1-.72,0C385.4,121.377,385.4,121.2,385.4,121.017Z" transform="translate(-385.4 -111.525)" fill="#fff"/></g><g transform="translate(22.313)"><path d="M379.2,121.017c0-.18,0-.18.18-.36l9-9a.509.509,0,0,1,.72.72l-9,9a.547.547,0,0,1-.72,0A.628.628,0,0,1,379.2,121.017Z" transform="translate(-379.2 -111.525)" fill="#fff"/></g><g transform="translate(11.156)"><path d="M373,121.017c0-.18,0-.18.18-.36l9-9a.509.509,0,1,1,.72.72l-9,9a.547.547,0,0,1-.72,0A.628.628,0,0,1,373,121.017Z" transform="translate(-373 -111.525)" fill="#fff"/></g><path d="M366.8,121.017c0-.18,0-.18.18-.36l9-9a.509.509,0,0,1,.72.72l-9,9a.547.547,0,0,1-.72,0A.628.628,0,0,1,366.8,121.017Z" transform="translate(-366.8 -111.525)" fill="#fff"/></g><g transform="translate(160.76 571.694)"><g transform="translate(0 77.915)"><path d="M98.2,285.92c0-.18,0-.18.18-.36a.547.547,0,0,1,.72,0l9,9a.509.509,0,0,1-.72.72l-9-9A.629.629,0,0,1,98.2,285.92Z" transform="translate(-98.2 -285.425)" fill="#fff"/></g><g transform="translate(0 66.759)"><path d="M98.2,279.72c0-.18,0-.18.18-.36a.547.547,0,0,1,.72,0l9,9a.509.509,0,1,1-.72.72l-9-9A.628.628,0,0,1,98.2,279.72Z" transform="translate(-98.2 -279.225)" fill="#fff"/></g><g transform="translate(0 55.602)"><path d="M98.2,273.52c0-.18,0-.18.18-.36a.547.547,0,0,1,.72,0l9,9a.509.509,0,1,1-.72.72l-9-9A.628.628,0,0,1,98.2,273.52Z" transform="translate(-98.2 -273.025)" fill="#fff"/></g><g transform="translate(0 44.446)"><path d="M98.2,267.32c0-.18,0-.18.18-.36a.547.547,0,0,1,.72,0l9,9a.509.509,0,0,1-.72.72l-9-9A.628.628,0,0,1,98.2,267.32Z" transform="translate(-98.2 -266.825)" fill="#fff"/></g><g transform="translate(0 33.289)"><path d="M98.2,261.12c0-.18,0-.18.18-.36a.547.547,0,0,1,.72,0l9,9a.509.509,0,1,1-.72.72l-9-9A.628.628,0,0,1,98.2,261.12Z" transform="translate(-98.2 -260.625)" fill="#fff"/></g><g transform="translate(0 22.133)"><path d="M98.2,254.92c0-.18,0-.18.18-.36a.547.547,0,0,1,.72,0l9,9a.509.509,0,0,1-.72.72l-9-9A.628.628,0,0,1,98.2,254.92Z" transform="translate(-98.2 -254.425)" fill="#fff"/></g><g transform="translate(0 11.156)"><path d="M98.2,248.82c0-.18,0-.18.18-.36a.547.547,0,0,1,.72,0l9,9a.509.509,0,1,1-.72.72l-9-9A.628.628,0,0,0,98.2,248.82Z" transform="translate(-98.2 -248.325)" fill="#fff"/></g><path d="M98.2,242.62c0-.18,0-.18.18-.36a.547.547,0,0,1,.72,0l9,9a.509.509,0,0,1-.72.72l-9-9A.628.628,0,0,0,98.2,242.62Z" transform="translate(-98.2 -242.125)" fill="#fff"/></g><g transform="translate(1364.058 694.888)"><path d="M567,382.092V293.38a.18.18,0,1,1,.36,0v88.712a.176.176,0,0,1-.18.18C567.18,382.451,567,382.271,567,382.092Z" transform="translate(-567 -293.2)" fill="#fff"/></g><g transform="translate(228.239 234.794)"><path d="M135.7,194.93V102.08a.18.18,0,0,1,.36,0v93.03a.176.176,0,0,1-.18.18A.628.628,0,0,1,135.7,194.93Z" transform="translate(-135.7 -101.9)" fill="#fff"/></g><g transform="translate(797.121 8.42)"><path d="M351.9,359.168V8.28a.18.18,0,1,1,.36,0V359.168a.18.18,0,1,1-.36,0Z" transform="translate(-351.9 -8.1)" fill="#fff"/></g><g transform="translate(797.121 658.703)"><path d="M351.9,592.368V241.48a.18.18,0,0,1,.36,0V592.368a.18.18,0,0,1-.36,0Z" transform="translate(-351.9 -241.3)" fill="#fff"/></g><g transform="translate(790.83 115.2)"><rect width="33.649" height="5.758" transform="translate(5.758) rotate(90)" fill="#fff"/></g><g transform="translate(790.799 869.465)"><rect width="33.649" height="5.758" transform="translate(5.758) rotate(90)" fill="#fff"/></g><g transform="translate(794.242 980.98)"><path d="M356.418,447.032V423.459a3.033,3.033,0,0,0-3.059-3.059h0a3.033,3.033,0,0,0-3.059,3.059v23.573a3.033,3.033,0,0,0,3.059,3.059h0A3.033,3.033,0,0,0,356.418,447.032Z" transform="translate(-350.3 -420.4)" fill="#fff"/></g><g transform="translate(794.242 7.7)"><path d="M356.418,34.511V10.759A3.033,3.033,0,0,0,353.359,7.7h0a3.033,3.033,0,0,0-3.059,3.059V34.331a3.033,3.033,0,0,0,3.059,3.059h0A2.888,2.888,0,0,0,356.418,34.511Z" transform="translate(-350.3 -7.7)" fill="#fff"/></g><g transform="translate(1373.653 228.852)"><rect width="12.596" height="12.596" transform="translate(12.596) rotate(90)" fill="#fff"/></g><g transform="translate(206.272 560.816)"><rect width="7.378" height="7.378" transform="translate(7.378) rotate(90)" fill="#fff"/></g><g transform="translate(789.777 783.127)"><rect width="6.658" height="6.658" transform="translate(6.658) rotate(90)" fill="#fff"/></g><g transform="translate(798.733 228.613)"><rect width="8.097" height="8.097" transform="translate(8.097) rotate(90)" fill="#fff"/></g><g transform="translate(1408.504 242.729)"><path d="M591.7,449.505h0l12.416-12.6V91.78a.18.18,0,1,1,.36,0V437.089L592.06,449.505c0,.18-.18.18-.36,0Z" transform="translate(-591.7 -91.6)" fill="#fff"/></g><g transform="translate(174.256 416.762)"><path d="M105.7,155.232h0c.18-.36.36-.36.36-.18l12.416,12.416V503.061a.176.176,0,0,1-.18.18l-.18-.18V167.648L105.7,155.232Z" transform="translate(-105.7 -154.934)" fill="#fff"/></g></g></svg>